<svg xmlns="http://www.w3.org/2000/svg" xmlns:xlink="http://www.w3.org/1999/xlink" version="1.1" id="Your_Icon" x="0px" y="0px" width="100px" height="100px" viewBox="0 0 100 100" enable-background="new 0 0 100 100" xml:space="preserve">
<g>
	<rect x="0" y="0" fill="none" width="100" height="100"/>
</g>
<g>
	<g>
		<path d="M48.248,64.462c0,1.562,1.208,2.828,2.738,2.951l0.316-0.009h0.35l0.176,0c0.251,0,0.459-0.205,0.458-0.458V66.22    c0-0.253-0.207-0.458-0.458-0.458H51.3c-0.007,0-0.008,0.002-0.014,0.002c-0.052,0.004-0.183,0.011-0.174,0.012    c-0.697-0.06-1.222-0.623-1.222-1.314c0-0.47,0.25-0.897,0.67-1.142c0.503-0.295,0.811-0.834,0.811-1.417    c0-0.583-0.309-1.122-0.812-1.416c-0.419-0.245-0.669-0.672-0.669-1.142c0-0.47,0.25-0.897,0.669-1.142    c0.503-0.295,0.812-0.834,0.812-1.417s-0.309-1.122-0.812-1.417c-0.419-0.245-0.669-0.672-0.669-1.142    c0-0.693,0.527-1.257,1.226-1.315c0.044,0,0.547,0.004,0.547,0.004v-0.008h0.858c-0.201,0.398-0.324,0.841-0.324,1.319    c0,1.095,0.599,2.042,1.481,2.559c-0.882,0.517-1.481,1.463-1.481,2.559c0,1.096,0.599,2.042,1.481,2.558    c-0.882,0.517-1.481,1.464-1.481,2.559c0,1.562,1.208,2.828,2.738,2.951l0.316-0.009h0.35l0.176,0    c0.251,0,0.459-0.205,0.458-0.458V66.22c0-0.253-0.207-0.458-0.458-0.458h-0.529c-0.007,0-0.008,0.002-0.014,0.002    c-0.052,0.004-0.183,0.011-0.174,0.012c-0.696-0.06-1.222-0.623-1.222-1.314c0-0.47,0.25-0.897,0.67-1.142    c0.503-0.295,0.811-0.834,0.811-1.417c0-0.583-0.309-1.122-0.812-1.416c-0.419-0.245-0.669-0.672-0.669-1.142    c0-0.47,0.25-0.897,0.669-1.142c0.503-0.295,0.812-0.834,0.812-1.417s-0.309-1.122-0.812-1.417    c-0.419-0.245-0.669-0.672-0.669-1.142c0-0.693,0.526-1.257,1.226-1.315c0.044,0,0.547,0.004,0.547,0.004v-0.008h0.858    c-0.201,0.398-0.324,0.842-0.324,1.32c0,1.095,0.599,2.042,1.481,2.559c-0.882,0.517-1.481,1.463-1.481,2.559    c0,1.096,0.599,2.042,1.481,2.558c-0.882,0.517-1.481,1.464-1.481,2.559c0,1.562,1.208,2.828,2.738,2.951l0.316-0.009h0.35    l0.176,0c0.251,0,0.459-0.205,0.458-0.458V66.22c0-0.253-0.207-0.458-0.458-0.458h-0.529c-0.007,0-0.008,0.002-0.014,0.002    c-0.052,0.004-0.183,0.011-0.174,0.012c-0.696-0.06-1.222-0.623-1.222-1.314c0-0.47,0.25-0.897,0.67-1.142    c0.503-0.295,0.811-0.834,0.811-1.417c0-0.583-0.309-1.122-0.812-1.416c-0.419-0.245-0.669-0.672-0.669-1.142    c0-0.47,0.25-0.897,0.669-1.142c0.503-0.295,0.812-0.834,0.812-1.417s-0.309-1.122-0.812-1.417    c-0.419-0.245-0.669-0.672-0.669-1.142c0-0.693,0.526-1.257,1.226-1.315c0.044,0,0.547,0.004,0.547,0.004v-0.008h0.176    c0.251,0,0.459-0.205,0.458-0.458v-0.718c0-0.253-0.206-0.458-0.458-0.458H43.202c-0.004,0-0.005,0.001-0.01,0.001l-0.103,0    c-1.53,0.123-2.738,1.389-2.738,2.952c0,1.095,0.599,2.042,1.481,2.559c-0.882,0.517-1.481,1.463-1.481,2.559    c0,1.096,0.599,2.042,1.481,2.558c-0.882,0.517-1.481,1.464-1.481,2.559c0,1.562,1.208,2.828,2.738,2.951l0.316-0.009h0.35    l0.176,0c0.251,0,0.459-0.205,0.458-0.458V66.22c0-0.253-0.206-0.458-0.458-0.458h-0.529c-0.007,0-0.008,0.002-0.014,0.002    c-0.052,0.004-0.183,0.011-0.174,0.012c-0.697-0.06-1.222-0.623-1.222-1.314c0-0.47,0.25-0.897,0.67-1.142    c0.503-0.295,0.811-0.834,0.811-1.417c0-0.583-0.309-1.122-0.812-1.416c-0.419-0.245-0.669-0.672-0.669-1.142    c0-0.47,0.25-0.897,0.669-1.142c0.503-0.295,0.812-0.834,0.812-1.417s-0.309-1.122-0.812-1.417    c-0.419-0.245-0.669-0.672-0.669-1.142c0-0.693,0.527-1.257,1.226-1.315c0.044,0,0.547,0.004,0.547,0.004v-0.008h0.072    c0.001,0,0.001,0,0.003,0h0.784c-0.201,0.398-0.325,0.841-0.325,1.319c0,1.095,0.599,2.042,1.481,2.559    c-0.882,0.517-1.481,1.463-1.481,2.559c0,1.096,0.599,2.042,1.481,2.558c-0.882,0.517-1.481,1.464-1.481,2.559    c0,1.562,1.208,2.828,2.738,2.951l0.316-0.009h0.35l0.176,0c0.251,0,0.459-0.205,0.458-0.458V66.22    c0-0.253-0.206-0.458-0.458-0.458h-0.529c-0.007,0-0.008,0.002-0.014,0.002c-0.052,0.004-0.183,0.011-0.174,0.012    c-0.697-0.06-1.222-0.623-1.222-1.314c0-0.47,0.25-0.897,0.67-1.142c0.503-0.295,0.811-0.834,0.811-1.417    c0-0.583-0.309-1.122-0.812-1.416c-0.419-0.245-0.669-0.672-0.669-1.142c0-0.47,0.25-0.897,0.669-1.142    c0.503-0.295,0.812-0.834,0.812-1.417s-0.309-1.122-0.812-1.417c-0.419-0.245-0.669-0.672-0.669-1.142    c0-0.693,0.527-1.257,1.226-1.315c0.044,0,0.547,0.004,0.547,0.004v-0.008h0.858c-0.201,0.398-0.325,0.841-0.325,1.319    c0,1.095,0.599,2.042,1.481,2.559c-0.882,0.517-1.481,1.463-1.481,2.559c0,1.096,0.599,2.042,1.481,2.558    C48.847,62.42,48.248,63.366,48.248,64.462z M32.324,68.714h2.062c0.253,0,0.458-0.206,0.458-0.458V25.003    c0-0.253-0.205-0.459-0.458-0.459h-2.062c-0.251,0-0.457,0.206-0.457,0.459v43.253C31.868,68.508,32.073,68.714,32.324,68.714z     M41.516,50.21h18.219c0.251,0,0.458-0.205,0.458-0.458V47.69c0-0.251-0.206-0.457-0.458-0.457H41.516    c-0.253,0-0.459,0.205-0.459,0.457v2.062C41.057,50.005,41.264,50.21,41.516,50.21z M61.141,76.114l-0.613-0.359    c-0.217-0.127-0.5-0.053-0.626,0.164l-9.452,16.125c-0.127,0.216-0.054,0.498,0.164,0.625l0.614,0.36    c0.217,0.128,0.498,0.055,0.626-0.163l9.451-16.125C61.431,76.524,61.359,76.242,61.141,76.114z M42.993,69.97    c-0.017-0.017-0.04-0.026-0.06-0.04c-0.076-0.055-0.164-0.094-0.264-0.094H25.786c-0.007,0-0.012,0.004-0.019,0.004    c-0.124-0.005-0.249,0.035-0.344,0.13L9.977,85.415c-0.178,0.179-0.18,0.47-0.001,0.649l1.458,1.458    c0.132,0.131,0.325,0.164,0.489,0.1c0.024,0.004,0.044,0.014,0.069,0.014h15.133c0.065,0.014,0.13,0.014,0.194,0h15.35    c0.253,0,0.458-0.206,0.458-0.458V70.292c0-0.119-0.049-0.226-0.124-0.308C42.999,69.98,42.997,69.974,42.993,69.97z     M26.199,84.658H14.943l10.643-10.643v9.23l1.626-1.626v-8.808h10.832L26.199,84.658z M40.15,84.658h-9.742l9.742-9.741V84.658z     M49.594,46.17h2.063c0.251,0,0.457-0.206,0.457-0.458V2.459C52.114,2.207,51.908,2,51.657,2h-2.063    c-0.253,0-0.458,0.207-0.458,0.459v43.253C49.137,45.964,49.342,46.17,49.594,46.17z M67.922,78.289l-0.705-0.094    c-0.25-0.033-0.481,0.144-0.514,0.393l-2.47,18.527c-0.033,0.249,0.143,0.48,0.393,0.513l0.705,0.094    c0.25,0.033,0.48-0.143,0.514-0.393l2.47-18.526C68.348,78.554,68.172,78.322,67.922,78.289z M65.572,77.866l-0.686-0.185    c-0.244-0.066-0.496,0.08-0.562,0.321L59.428,96.04c-0.066,0.242,0.079,0.494,0.322,0.561l0.686,0.187    c0.243,0.066,0.495-0.078,0.561-0.321l4.896-18.038C65.959,78.186,65.816,77.933,65.572,77.866z M63.299,77.137l-0.655-0.275    c-0.233-0.097-0.502,0.013-0.6,0.244L54.806,94.34c-0.098,0.231,0.013,0.5,0.245,0.598l0.656,0.276    c0.232,0.097,0.501-0.012,0.598-0.244l7.237-17.233C63.64,77.506,63.532,77.235,63.299,77.137z M70.306,78.397h-0.711    c-0.253,0-0.458,0.207-0.458,0.458v18.691c0,0.251,0.205,0.457,0.458,0.457h0.711c0.253,0,0.458-0.205,0.458-0.457V78.855    C70.764,78.604,70.559,78.397,70.306,78.397z M73.391,77.006h0.041c0.02,0,0.042-0.001,0.063-0.007l1.991-0.54    c0.028-0.008,0.049-0.025,0.074-0.037c0.034-0.006,0.069-0.006,0.102-0.021l1.902-0.798c0.026-0.011,0.045-0.031,0.068-0.046    c0.033-0.01,0.068-0.016,0.099-0.034l1.78-1.043c0.217-0.128,0.29-0.41,0.164-0.627l-6.282-10.717    c-0.015-0.027-0.043-0.039-0.063-0.061V17.862c0-0.396-0.04-0.761-0.121-1.087c0,0.001,0.001,0.001,0.001,0.002    c0-0.001-0.001-0.001-0.001-0.002c-0.002-0.006-0.003-0.012-0.004-0.017c-0.046-0.186-0.104-0.357-0.177-0.522    c-0.308-0.698-0.92-1.247-1.64-1.5c-0.384-0.135-0.831-0.203-1.329-0.203h-0.061c-0.558,0-1.056,0.09-1.478,0.265    c-0.536,0.222-0.99,0.601-1.294,1.095c-0.114,0.185-0.207,0.383-0.282,0.603c-0.005,0.015-0.01,0.03-0.015,0.045    c-0.128,0.397-0.191,0.848-0.187,1.344v45.125c-0.048,0.035-0.097,0.071-0.129,0.126l-6.282,10.717    c-0.126,0.217-0.054,0.5,0.164,0.627l1.78,1.043c0.031,0.018,0.066,0.023,0.099,0.034c0.023,0.015,0.042,0.035,0.068,0.046    l1.902,0.798c0.033,0.014,0.068,0.015,0.103,0.021c0.024,0.012,0.046,0.03,0.074,0.037l1.991,0.54    c0.021,0.006,0.042,0.007,0.062,0.007h0.041c0.027,0.009,0.05,0.023,0.079,0.027l2.044,0.273c0.008,0.001,0.015,0.002,0.023,0.002    c0.028,0,0.055-0.006,0.082-0.008c0.027,0.004,0.052,0.016,0.08,0.016h2.062c0.037,0,0.071-0.012,0.105-0.021    c0.038,0.01,0.079,0.016,0.12,0.016c0.02,0,0.04-0.001,0.06-0.004l2.045-0.273C73.34,77.029,73.364,77.014,73.391,77.006z     M69.499,17.862c-0.002-0.245,0.031-0.403,0.054-0.475c0.011-0.032,0.017-0.044,0.021-0.049l0.002,0.007    c0.046-0.019,0.187-0.054,0.421-0.054h0.061c0.216,0,0.356,0.026,0.416,0.047c0.014,0.004,0.023,0.008,0.029,0.011    c0.006,0.013,0.015,0.037,0.025,0.079c0.021,0.082,0.043,0.227,0.043,0.434v45.357c0,0.207-0.022,0.353-0.043,0.434    c-0.01,0.042-0.019,0.066-0.025,0.079c-0.006,0.002-0.015,0.006-0.029,0.011c-0.06,0.021-0.201,0.047-0.416,0.047h-0.061    c-0.234,0-0.375-0.035-0.421-0.054l-0.002,0.007c-0.003-0.005-0.01-0.017-0.021-0.049c-0.023-0.072-0.056-0.23-0.054-0.475V17.862    z M72.755,74.324l-1.609,0.215c-0.017,0-0.033,0-0.049,0c-0.107,0-0.215,0.006-0.321,0.018h-1.661    c-0.079-0.008-0.157-0.013-0.235-0.014l-1.676-0.223c-0.046-0.01-0.092-0.019-0.138-0.027l-1.635-0.443    c-0.075-0.029-0.151-0.054-0.228-0.077l-1.306-0.549l3.995-6.817c0.047,0.016,0.094,0.029,0.142,0.043l0.462,0.125    c0.117,0.031,0.236,0.056,0.357,0.072l0.471,0.063c0.121,0.016,0.243,0.024,0.365,0.024h0.628c0.122,0,0.244-0.008,0.365-0.024    l0.471-0.063c0.121-0.016,0.239-0.04,0.357-0.072l0.462-0.125c0.047-0.012,0.094-0.027,0.142-0.042l3.995,6.816L74.8,73.771    c-0.076,0.022-0.151,0.047-0.224,0.076l-1.592,0.432C72.907,74.292,72.831,74.307,72.755,74.324z M89.552,92.044l-9.452-16.125    c-0.126-0.216-0.409-0.29-0.626-0.164l-0.613,0.359c-0.218,0.128-0.29,0.41-0.164,0.627l9.451,16.125    c0.128,0.217,0.409,0.291,0.626,0.163l0.614-0.36C89.606,92.541,89.679,92.26,89.552,92.044z M77.959,77.107    c-0.097-0.231-0.367-0.342-0.6-0.244l-0.655,0.275c-0.233,0.098-0.341,0.369-0.244,0.6l7.237,17.233    c0.098,0.232,0.367,0.342,0.598,0.244l0.656-0.276c0.232-0.097,0.342-0.367,0.245-0.598L77.959,77.107z M75.679,78.002    c-0.066-0.242-0.318-0.387-0.562-0.321l-0.686,0.185c-0.244,0.067-0.387,0.32-0.321,0.562l4.896,18.038    c0.066,0.243,0.318,0.387,0.561,0.321l0.686-0.187c0.243-0.066,0.388-0.318,0.322-0.561L75.679,78.002z M72.786,78.195    l-0.705,0.094c-0.25,0.033-0.426,0.266-0.393,0.515l2.47,18.526c0.033,0.249,0.264,0.426,0.514,0.393l0.705-0.094    c0.25-0.033,0.426-0.264,0.393-0.513L73.3,78.588C73.267,78.339,73.036,78.162,72.786,78.195z"/>
	</g>
</g>
</svg>