<svg xmlns="http://www.w3.org/2000/svg" xmlns:xlink="http://www.w3.org/1999/xlink" version="1.1" x="0px" y="0px" width="100px" height="100px" viewBox="0 0 100 100" enable-background="new 0 0 100 100" xml:space="preserve">
<g id="Captions">
</g>
<g id="Your_Icon">
	<path fill="#000000" d="M60.086,14.7c0.471-1.206,0.725-2.519,0.725-3.89C60.811,4.84,55.972,0,50,0   c-5.968,0-10.811,4.84-10.811,10.811c0,1.371,0.254,2.684,0.725,3.89C20.896,19.242,6.757,36.347,6.757,56.757   C6.757,80.639,26.118,100,50,100s43.243-19.361,43.243-43.243C93.243,36.347,79.104,19.242,60.086,14.7z M44.595,10.811   c0-2.984,2.422-5.405,5.405-5.405s5.405,2.421,5.405,5.405c0,1.086-0.319,2.095-0.871,2.939c-1.488-0.158-3.003-0.236-4.534-0.236   s-3.046,0.078-4.534,0.236C44.914,12.905,44.595,11.896,44.595,10.811z M85.135,56.757c0,19.37-15.676,35.078-35.03,35.135   l-0.029,0.125l-0.031-0.125c-0.014,0-0.028,0-0.044,0c-19.369,0-35.078-15.676-35.135-35.033l-0.125-0.031l0.125-0.029   c0-0.015,0-0.026,0-0.041c0-19.369,15.676-35.079,35.033-35.135l0.006-0.005l0.022-0.119l0.032,0.124c0.015,0,0.025,0,0.041,0   c19.37,0,35.078,15.675,35.135,35.033l0.125,0.03l-0.125,0.03C85.135,56.73,85.135,56.742,85.135,56.757z"/>
	<path fill="#000000" d="M65.535,52.109c0.441,1.472,0.681,3.033,0.681,4.647c0,1.56-0.225,3.066-0.634,4.493l19.553-4.534   c0-0.019,0-0.042,0-0.061L65.535,52.109z"/>
	<path fill="#000000" d="M50,72.973c-1.558,0-3.065-0.225-4.493-0.634l4.537,19.553c0.021,0,0.042,0,0.061,0l4.542-19.598   C53.176,72.733,51.616,72.973,50,72.973z"/>
	<path fill="#000000" d="M33.784,56.757c0-1.558,0.226-3.066,0.634-4.493l-19.553,4.534c0,0.018,0,0.042,0,0.061l19.6,4.546   C34.023,59.933,33.784,58.375,33.784,56.757z"/>
	<path fill="#000000" d="M50,40.541c1.562,0,3.067,0.226,4.493,0.633l-4.534-19.552c-0.019,0-0.042,0-0.061,0l-4.545,19.599   C46.824,40.781,48.386,40.541,50,40.541z"/>
	<path fill="#000000" d="M60.153,69.399l7.079,4.522l-4.529-7.09C61.952,67.778,61.097,68.641,60.153,69.399z"/>
	<path fill="#000000" d="M39.849,44.114l-7.081-4.522l4.529,7.089C38.052,45.736,38.903,44.873,39.849,44.114z"/>
	<path fill="#000000" d="M69.037,39.479c2.447-3.486,1.597-4.337-1.891-1.89L48.943,50.356c1.984-0.369,4.01,0.185,5.575,1.752   c1.565,1.565,2.12,3.592,1.749,5.575L69.037,39.479z"/>
	<path fill="#000000" d="M45.481,61.146c-1.564-1.567-2.117-3.598-1.743-5.586L30.964,73.773c-2.448,3.483-1.598,4.336,1.894,1.889   l18.203-12.771C49.076,63.261,47.046,62.706,45.481,61.146z"/>
</g>
</svg>